<svg width="47" height="50" viewBox="0 0 47 50" fill="none" xmlns="http://www.w3.org/2000/svg">
<g filter="url(#filter0_d_125_1365)">
<rect x="8.48633" y="7.64133" width="27.5517" height="36.2791" rx="9.79742" fill="white"/>
<path d="M6.99766 39.3925C7.03489 39.5189 7.22106 39.6824 7.45863 39.6824C7.77667 39.6824 8.20687 39.7886 8.66584 39.9463C9.13235 40.1065 9.65464 40.3293 10.1669 40.5819C10.6792 40.8346 11.1858 41.1193 11.6204 41.4047C12.0499 41.6868 12.4241 41.9793 12.6607 42.2512L13.4668 43.1439H22.0695H30.646L31.6934 42.0955L31.6933 42.0955L31.6961 42.0928C32.3028 41.5034 33.2497 40.9047 34.1922 40.4543C35.1272 40.0075 36.1081 39.6824 36.7826 39.6824C36.8246 39.6824 36.8499 39.6815 36.8693 39.679C36.8817 39.6775 36.8875 39.6757 36.8893 39.675C36.8954 39.6694 36.9119 39.6498 36.9335 39.5953C36.9691 39.5056 37.0058 39.3535 37.0382 39.0971C37.0702 38.8439 37.0964 38.5035 37.1176 38.0458C37.2024 36.2111 37.2024 32.5781 37.2024 25.3763C37.2024 18.1457 37.2024 14.5128 37.1176 12.6853C37.0964 12.2294 37.0702 11.8914 37.0382 11.6407C37.0058 11.3867 36.9693 11.2376 36.9342 11.1509C36.9143 11.1019 36.8993 11.0831 36.8932 11.0773C36.8909 11.0766 36.8848 11.0748 36.8721 11.0734C36.8516 11.071 36.8257 11.0703 36.7826 11.0703C36.4431 11.0703 36.0118 10.9737 35.5551 10.8243C35.0933 10.6734 34.586 10.462 34.0877 10.218C33.1002 9.73427 32.1123 9.10469 31.5851 8.53552C31.5849 8.53521 31.5846 8.53489 31.5843 8.53457L30.7098 7.60877H22.1376H13.5523L12.301 8.72289C12.3006 8.7233 12.3001 8.72371 12.2997 8.72412C11.646 9.32225 10.7381 9.89742 9.84997 10.3267C8.96877 10.7527 8.06751 11.0544 7.43108 11.0702L7.43108 11.0703H7.42457C7.42158 11.0703 7.41906 11.0704 7.41699 11.0705C7.40596 11.085 7.37948 11.1281 7.34905 11.2346C7.27438 11.496 7.21312 11.9961 7.16613 12.9386C7.07284 14.8099 7.03875 18.3218 7.00468 24.8873L7.00467 24.8883C6.97062 28.7675 6.95359 32.3437 6.95359 34.9821C6.95359 36.3015 6.95785 37.3857 6.96635 38.1559C6.9706 38.5412 6.9759 38.8468 6.98222 39.0634C6.98538 39.172 6.98876 39.2566 6.99227 39.317C6.9955 39.3726 6.99823 39.3924 6.99773 39.3925C6.99771 39.3925 6.99768 39.3925 6.99766 39.3925ZM6.99766 39.3925C6.99744 39.3921 6.99695 39.3901 6.99613 39.387C6.9966 39.3888 6.99711 39.3906 6.99766 39.3925ZM7.34292 9.94638L7.34291 9.94633L7.3478 9.94553C8.09325 9.82199 9.03606 9.46024 9.91176 8.99535C10.7892 8.52953 11.5667 7.97744 11.9968 7.49199C11.9969 7.49186 11.997 7.49173 11.9971 7.4916L12.7795 6.59843L12.8576 6.50932H12.976H21.9673H30.9586H31.0544L31.1275 6.57122L32.7963 7.98468C34.0635 9.05792 34.913 9.49854 36.2991 9.83395L38.2063 10.2955L38.4061 10.3438V10.5494V25.3763V40.2033V40.4089L38.2063 40.4572L36.2991 40.9187C34.913 41.2542 34.0635 41.6948 32.7963 42.768L31.1275 44.1815L31.0544 44.2434H30.9586H21.9673H12.976H12.8566L12.7785 44.1531L12.0304 43.2891C12.0302 43.2889 12.03 43.2887 12.0298 43.2884C11.0859 42.2137 9.19831 41.1698 7.46886 40.7753C7.46879 40.7753 7.46873 40.7753 7.46866 40.7753L6.07248 40.458L5.86815 40.4116L5.86911 40.2021L5.93722 25.2886L5.93723 25.288L6.0394 10.4034L6.04088 10.1876L6.25307 10.1483L7.34292 9.94638ZM36.8868 39.6768C36.8868 39.6769 36.8877 39.6765 36.8891 39.6751C36.8875 39.676 36.8867 39.6767 36.8868 39.6768ZM36.8903 11.0751C36.8903 11.0753 36.8911 11.076 36.8928 11.077C36.8911 11.0754 36.8902 11.0749 36.8903 11.0751Z" fill="#BD2432" stroke="#BD2432" stroke-width="0.522529"/>
<path d="M21.4564 11.359H17.9713V12.3093V13.2884H21.3542H25.0325H25.2938V13.5497V15.8574V18.1651V18.411L25.0483 18.4258L23.6179 18.5124L23.6175 18.5124C23.2464 18.5343 22.9854 18.55 22.7933 18.5781C22.5965 18.607 22.5221 18.6433 22.4895 18.6709C22.4684 18.6888 22.4381 18.7249 22.4192 18.8597C22.3995 19.001 22.3988 19.1956 22.3988 19.492V20.3557H23.6702H25.2028H25.4657L25.4641 20.6186L25.3959 31.6378L25.3959 31.6386L25.2938 42.6867L25.2915 42.9359L25.0424 42.9454L22.7605 43.0319L22.7604 43.0319L20.4444 43.1184L20.1734 43.1286V42.8574V35.3285V27.8285V27.5673H20.4347H22.4782H24.2604V24.9439V22.3205H22.4782H20.4347H20.1734V22.0593V19.3189V16.5785V16.3172H20.4347H22.5122H24.2689L24.1934 15.5073L24.1934 15.5066L24.1139 14.6763H20.9456H17.801V19.3189V23.9718L19.6959 24.0482L19.6979 24.0483C20.5889 24.091 21.1533 24.1344 21.4928 24.2356C21.6681 24.2879 21.8234 24.3663 21.9283 24.5034C22.0355 24.6433 22.0583 24.8027 22.0583 24.9439C22.0583 25.0851 22.0355 25.2445 21.9283 25.3844C21.8234 25.5215 21.6681 25.5999 21.4928 25.6522C21.1533 25.7534 20.5889 25.7968 19.6979 25.8395L19.6959 25.8396L17.7989 25.9161L17.7329 33.742C17.7329 33.7423 17.7329 33.7427 17.7329 33.743C17.7329 35.9651 17.7159 38.0426 17.6988 39.597C17.6884 40.5522 17.6779 41.3074 17.6714 41.7784C17.6673 42.0757 17.6648 42.2597 17.6648 42.3093V42.3196L17.664 42.3298C17.6532 42.4662 17.6184 42.6124 17.5153 42.7384C17.413 42.8635 17.2701 42.9362 17.1094 42.9823C16.8033 43.0701 16.3208 43.0898 15.5985 43.0898C14.7747 43.0898 14.2537 43.0715 13.8112 42.8944C13.3638 42.7153 13.0209 42.3839 12.5167 41.8574L11.3948 40.7343L11.3183 40.6578V40.5497V26.992V13.4054V13.1442H11.5796H12.6014H13.6231H13.8844V13.4054V18.3093C13.8844 20.6486 13.8765 21.8994 13.7839 22.5607C13.7388 22.8828 13.6665 23.1356 13.5043 23.2946C13.3272 23.4684 13.1014 23.4744 12.9419 23.4744C12.8073 23.4744 12.7294 23.4869 12.6822 23.5045C12.646 23.5179 12.6278 23.5337 12.6105 23.5638C12.5872 23.6041 12.562 23.6781 12.5451 23.8167C12.5285 23.9532 12.522 24.1314 12.522 24.367C12.522 24.6025 12.5285 24.7807 12.5451 24.9172C12.562 25.0559 12.5872 25.1299 12.6105 25.1702C12.6278 25.2003 12.646 25.216 12.6822 25.2295C12.7294 25.247 12.8073 25.2596 12.9419 25.2596C13.1021 25.2596 13.333 25.2655 13.5108 25.4527C13.6688 25.619 13.7395 25.8836 13.7843 26.2302C13.8764 26.9438 13.8844 28.3008 13.8844 30.8574C13.8844 33.1315 13.8676 34.4799 13.7938 35.2594C13.7574 35.6433 13.7049 35.9239 13.6147 36.1133C13.5674 36.2128 13.5023 36.3034 13.4086 36.3673C13.312 36.4333 13.2081 36.4552 13.1122 36.4552C13.056 36.4552 13.0303 36.4667 13.0174 36.4752C13.0043 36.4838 12.9809 36.5044 12.9554 36.5623C12.8985 36.6917 12.8626 36.9311 12.8626 37.3477V38.2403H14.4745H16.0865V24.7997V11.359H12.8738H9.3999L9.27809 10.8666L10.8074 10.0607C11.2037 9.83665 11.6355 9.54834 12.01 9.26643C12.3857 8.98355 12.6872 8.71938 12.8394 8.54092L13.4134 7.7688L13.4918 7.6634H13.6231H19.4129H25.2028H25.4641V7.92467V9.51121V11.0977V11.359H25.2028H21.4564Z" fill="#BD2432" stroke="#BD2432" stroke-width="0.522529"/>
<path d="M27.9272 11.3589H27.666V11.0976V9.51106V7.92452V7.66325H27.9272H29.1193C29.6148 7.66325 30.0138 7.71555 30.4057 7.89176C30.7923 8.06562 31.1503 8.35044 31.5825 8.77488C32.1459 9.30769 33.1406 10.0072 33.7849 10.2801L33.7849 10.28L33.7897 10.2822L35.0158 10.8302L34.9113 11.33L31.4374 11.3589V11.3589H31.4352H27.9272Z" fill="#BD2432" stroke="#BD2432" stroke-width="0.522529"/>
<path d="M8.17408 39.6281H8.17331C8.09212 39.6281 7.95934 39.6281 7.83281 39.5651C7.69248 39.4952 7.60127 39.3724 7.53844 39.2187C7.47772 39.0701 7.43435 38.871 7.40016 38.6097C7.36556 38.3452 7.33853 38.0014 7.3171 37.5548C7.23166 35.7745 7.23166 32.2732 7.23166 25.3981V25.3764V25.3548C7.23166 18.4796 7.23166 14.9783 7.3171 13.198C7.33853 12.7515 7.36556 12.4076 7.40016 12.1432C7.43435 11.8819 7.47772 11.6828 7.53844 11.5342C7.60127 11.3805 7.69248 11.2576 7.83281 11.1878C7.95934 11.1248 8.09212 11.1248 8.17331 11.1248H8.17408H8.17485C8.25604 11.1248 8.38882 11.1248 8.51535 11.1878C8.65568 11.2576 8.74689 11.3805 8.80972 11.5342C8.87044 11.6828 8.91381 11.8819 8.948 12.1432C8.9826 12.4076 9.00963 12.7515 9.03106 13.198C9.1165 14.9783 9.1165 18.4796 9.1165 25.3548V25.3764V25.3981C9.1165 32.2732 9.1165 35.7745 9.03106 37.5548C9.00963 38.0014 8.9826 38.3452 8.948 38.6097C8.91381 38.871 8.87044 39.0701 8.80972 39.2187C8.74689 39.3724 8.65568 39.4952 8.51535 39.5651C8.38882 39.6281 8.25604 39.6281 8.17485 39.6281H8.17408Z" fill="#BD2432" stroke="#BD2432" stroke-width="0.522529"/>
<path d="M35.0918 12.3996L35.0917 12.3996L35.0927 12.3917C35.1435 11.9897 35.2162 11.6653 35.3814 11.4454C35.5705 11.1938 35.8391 11.1247 36.1352 11.1247C36.2195 11.1247 36.3531 11.1276 36.4804 11.2018C36.6143 11.2799 36.6974 11.4088 36.7543 11.5625C36.8619 11.853 36.9223 12.3647 36.9624 13.2528C37.0436 15.0508 37.0436 18.5519 37.0436 25.3565V25.3764V25.398C37.0436 32.2732 37.0436 35.7745 36.9581 37.5548C36.9367 38.0013 36.9097 38.3452 36.8751 38.6096C36.8409 38.8709 36.7975 39.07 36.7368 39.2186C36.674 39.3724 36.5828 39.4952 36.4424 39.565C36.3159 39.628 36.1831 39.628 36.1019 39.628H36.1012C35.9359 39.628 35.6906 39.621 35.5137 39.3883C35.4372 39.2876 35.3862 39.1605 35.3483 39.0138C35.31 38.8656 35.2809 38.6807 35.258 38.4518C35.1669 37.5444 35.1587 35.7958 35.1587 32.4437V25.7819H33.3765C32.9252 25.7819 32.5662 25.7783 32.2829 25.7644C32.003 25.7507 31.7799 25.7264 31.6079 25.6786C31.4325 25.6298 31.2775 25.5474 31.1789 25.3944C31.0858 25.25 31.0718 25.0847 31.0718 24.9437C31.0718 24.8026 31.0858 24.6374 31.1789 24.4929C31.2775 24.3399 31.4325 24.2576 31.6079 24.2088C31.7799 24.161 32.003 24.1366 32.2829 24.1229C32.5662 24.1091 32.9252 24.1055 33.3765 24.1055H35.1587V19.3187V14.5319H32.0142H28.8697V15.4245V16.317H30.6519H32.7294H33.0009L32.9905 16.5884L32.8883 19.2421L32.8883 19.2422L32.7861 21.9248L32.7766 22.1761H32.5251H30.5497H28.8697V24.8572V27.5494L30.5952 27.625L30.5954 27.625L32.5367 27.7115L32.7823 27.7225L32.7863 27.9683L32.8885 34.2856L32.8885 34.287L32.9566 40.6332L32.9579 40.7539L32.8668 40.8331L31.6075 41.9286C31.6074 41.9287 31.6072 41.9288 31.6071 41.9289C31.123 42.3535 30.7177 42.6466 30.3136 42.8315C29.9032 43.0193 29.5073 43.0896 29.0512 43.0896H27.9272H27.666V42.8283V31.7514V20.6456V20.3993L27.9118 20.3848L29.3756 20.2983C29.7282 20.2765 29.9789 20.259 30.1655 20.2298C30.3544 20.2001 30.439 20.1633 30.4835 20.1288C30.5187 20.1017 30.5537 20.057 30.585 19.9346C30.6184 19.8041 30.6382 19.6241 30.6643 19.3515L30.7391 18.5703H29.4939H27.9272H27.666V18.3091V15.8283V13.3764V13.111L27.9313 13.1152L31.6096 13.1728H31.6096L35.0126 13.2267L35.0918 12.3996Z" fill="#BD2432" stroke="#BD2432" stroke-width="0.522529"/>
</g>
<defs>
<filter id="filter0_d_125_1365" x="-2.61264" y="0" width="52.2253" height="50.2253" filterUnits="userSpaceOnUse" color-interpolation-filters="sRGB">
<feFlood flood-opacity="0" result="BackgroundImageFix"/>
<feColorMatrix in="SourceAlpha" type="matrix" values="0 0 0 0 0 0 0 0 0 0 0 0 0 0 0 0 0 0 127 0" result="hardAlpha"/>
<feOffset dy="2.61264"/>
<feGaussianBlur stdDeviation="1.30632"/>
<feComposite in2="hardAlpha" operator="out"/>
<feColorMatrix type="matrix" values="0 0 0 0 0 0 0 0 0 0 0 0 0 0 0 0 0 0 0.25 0"/>
<feBlend mode="normal" in2="BackgroundImageFix" result="effect1_dropShadow_125_1365"/>
<feBlend mode="normal" in="SourceGraphic" in2="effect1_dropShadow_125_1365" result="shape"/>
</filter>
</defs>
</svg>
